<svg xmlns="http://www.w3.org/2000/svg"  viewBox="0 0 32 32" width="32px" height="32px" baseProfile="basic"><rect width="22.111" height="5" x="5" y="13" fill="#3498b3"/><rect width="8" height="1" x="18" y="14" fill="#fff"/><path fill="#302529" d="M28.111,19H4v-7h24.111V19z M6,17h20.111v-3H6V17z"/><rect width="22.111" height="5" x="5" y="4" fill="#3498b3"/><rect width="8" height="1" x="18" y="5" fill="#fff"/><path fill="#302529" d="M28.111,10H4V3h24.111V10z M6,8h20.111V5H6V8z"/><rect width="22.111" height="5" x="5" y="22" fill="#3498b3"/><rect width="8" height="1" x="18" y="23" fill="#fff"/><path fill="#302529" d="M28.111,28H4v-7h24.111V28z M6,26h20.111v-3H6V26z"/></svg>